<svg class="diagram-root" style="background: #f5f6f6" xmlns="http://www.w3.org/2000/svg" xmlns:xlink="http://www.w3.org/1999/xlink"><style>.diagram-root { font-family: "Helvetica Neue", sans-serif; font-size: 12px; } .t { overflow: visible; } .t-bg { y: 40; fill: #fff;   } .th { fill: #005aa0;   } .tht { fill: #fff; font-size: 14px;  } .tf { fill: #323c46; overflow: visible; } .tf.pk { fill: #005aa0; font-weight: bold; } .tf.fk { font-weight: bold; } .ty { fill: #adb1b5; font-weight: normal; text-anchor: end; } .r { fill: transparent; stroke: #c3c3c3; stroke-width: 1; } .l { stroke: 1; } .i { fill: #c2c7ce; stroke: #c2c7ce; } .i.ix { fill: #afb3b6; stroke: #000; } .fa { fill: transparent; overflow: visible; } .fa .bg.hover { fill: #f7f7f7; } .c { cy: 12; r: 4; stroke: #d2d2dc; fill: #d2d2dc; } .hr { fill: transparent; stroke: #323c46; stroke-opacity: 0.035; stroke-width: 13; } .dc { stroke: #fa5a3c; fill: #fa5a3c; } .x { stroke: white; stroke-width: 1; } .hl .th { fill: #1b9bff; } .hl .tht {  } .fhl .bg { fill: #e7f4ff; } .fhls .bg {  } .r.hl { stroke: #1b9bff; } .dim { opacity: 0.25; }</style><g class="drawing-wrapper" transform="translate(945.0500000000001, 130.77666666666664) scale(1,1)"><g class="rs"><path d="M -722.97 33.66 m -1, 0 a 1,1 0 1,0 2,0 a 1,1 0 1,0 -2,0 M -722.97 33.66 m -0.5, 0 a 0.5,0.5 0 1,0 1,0 a 0.5,0.5 0 1,0 -1,0  M-722.97 33.66 L-722.97 33.66 -710.97 33.66 M -722.97 39.66 m -1, 0 a 1,1 0 1,0 2,0 a 1,1 0 1,0 -2,0 M -722.97 39.66 m -0.5, 0 a 0.5,0.5 0 1,0 1,0 a 0.5,0.5 0 1,0 -1,0  M-722.97 39.66 L-722.97 39.66 -715.97 33.66 -722.97 27.659999999999997 M -722.97 27.659999999999997 m -1, 0 a 1,1 0 1,0 2,0 a 1,1 0 1,0 -2,0 M -722.97 27.659999999999997 m -0.5, 0 a 0.5,0.5 0 1,0 1,0 a 0.5,0.5 0 1,0 -1,0  M-710.97 33.66 Q -675.68 33.66, -640.39 94.02 T -569.82 154.37 M -557.82 154.37 m -1, 0 a 1,1 0 1,0 2,0 a 1,1 0 1,0 -2,0 M -557.82 154.37 m -0.5, 0 a 0.5,0.5 0 1,0 1,0 a 0.5,0.5 0 1,0 -1,0  M-557.82 154.37 L-557.82 154.37 -569.82 154.37 M-563.82 160.37 L-563.82 160.37 -563.82 148.37" id="h4232534043" class="r"></path><path d="M -698.29 201.87 m -1, 0 a 1,1 0 1,0 2,0 a 1,1 0 1,0 -2,0 M -698.29 201.87 m -0.5, 0 a 0.5,0.5 0 1,0 1,0 a 0.5,0.5 0 1,0 -1,0  M-698.29 201.87 L-698.29 201.87 -686.29 201.87 M -698.29 207.87 m -1, 0 a 1,1 0 1,0 2,0 a 1,1 0 1,0 -2,0 M -698.29 207.87 m -0.5, 0 a 0.5,0.5 0 1,0 1,0 a 0.5,0.5 0 1,0 -1,0  M-698.29 207.87 L-698.29 207.87 -691.29 201.87 -698.29 195.87 M -698.29 195.87 m -1, 0 a 1,1 0 1,0 2,0 a 1,1 0 1,0 -2,0 M -698.29 195.87 m -0.5, 0 a 0.5,0.5 0 1,0 1,0 a 0.5,0.5 0 1,0 -1,0  M-686.29 201.87 Q -657.17 201.87, -628.06 203.12 T -569.82 204.37 M -557.82 204.37 m -1, 0 a 1,1 0 1,0 2,0 a 1,1 0 1,0 -2,0 M -557.82 204.37 m -0.5, 0 a 0.5,0.5 0 1,0 1,0 a 0.5,0.5 0 1,0 -1,0  M-557.82 204.37 L-557.82 204.37 -569.82 204.37 M-563.82 210.37 L-563.82 210.37 -563.82 198.37" id="h2969388060" class="r"></path><path d="M -281.2366666666668 203.03 m -1, 0 a 1,1 0 1,0 2,0 a 1,1 0 1,0 -2,0 M -281.2366666666668 203.03 m -0.5, 0 a 0.5,0.5 0 1,0 1,0 a 0.5,0.5 0 1,0 -1,0  M-281.2366666666668 203.03 L-281.2366666666668 203.03 -293.2366666666668 203.03 M -281.2366666666668 209.03 m -1, 0 a 1,1 0 1,0 2,0 a 1,1 0 1,0 -2,0 M -281.2366666666668 209.03 m -0.5, 0 a 0.5,0.5 0 1,0 1,0 a 0.5,0.5 0 1,0 -1,0  M-281.2366666666668 209.03 L-281.2366666666668 209.03 -288.2366666666668 203.03 -281.2366666666668 197.03 M -281.2366666666668 197.03 m -1, 0 a 1,1 0 1,0 2,0 a 1,1 0 1,0 -2,0 M -281.2366666666668 197.03 m -0.5, 0 a 0.5,0.5 0 1,0 1,0 a 0.5,0.5 0 1,0 -1,0  M-293.2366666666668 203.03 Q -316.87 203.03, -340.5 153.7 T -387.77 104.37 M -399.77 104.37 m -1, 0 a 1,1 0 1,0 2,0 a 1,1 0 1,0 -2,0 M -399.77 104.37 m -0.5, 0 a 0.5,0.5 0 1,0 1,0 a 0.5,0.5 0 1,0 -1,0  M-399.77 104.37 L-399.77 104.37 -387.77 104.37 M-393.77 110.37 L-393.77 110.37 -393.77 98.37" id="h2558411332" class="r"></path><path d="M -181.52 445.86 m -1, 0 a 1,1 0 1,0 2,0 a 1,1 0 1,0 -2,0 M -181.52 445.86 m -0.5, 0 a 0.5,0.5 0 1,0 1,0 a 0.5,0.5 0 1,0 -1,0  M-181.52 445.86 L-181.52 445.86 -169.52 445.86 M -181.52 451.86 m -1, 0 a 1,1 0 1,0 2,0 a 1,1 0 1,0 -2,0 M -181.52 451.86 m -0.5, 0 a 0.5,0.5 0 1,0 1,0 a 0.5,0.5 0 1,0 -1,0  M-181.52 451.86 L-181.52 451.86 -174.52 445.86 -181.52 439.86 M -181.52 439.86 m -1, 0 a 1,1 0 1,0 2,0 a 1,1 0 1,0 -2,0 M -181.52 439.86 m -0.5, 0 a 0.5,0.5 0 1,0 1,0 a 0.5,0.5 0 1,0 -1,0  M-169.52 445.86 Q -128.83 445.86, -88.14 411.67 T -6.763333333333358 377.4766666666666 M 5.236666666666642 377.4766666666666 m -1, 0 a 1,1 0 1,0 2,0 a 1,1 0 1,0 -2,0 M 5.236666666666642 377.4766666666666 m -0.5, 0 a 0.5,0.5 0 1,0 1,0 a 0.5,0.5 0 1,0 -1,0  M5.236666666666642 377.4766666666666 L5.236666666666642 377.4766666666666 -6.763333333333358 377.4766666666666 M-0.7633333333333576 383.4766666666666 L-0.7633333333333576 383.4766666666666 -0.7633333333333576 371.4766666666666" id="h961324396" class="r"></path><path d="M 256.91333333333347 383.42999999999995 m -1, 0 a 1,1 0 1,0 2,0 a 1,1 0 1,0 -2,0 M 256.91333333333347 383.42999999999995 m -0.5, 0 a 0.5,0.5 0 1,0 1,0 a 0.5,0.5 0 1,0 -1,0  M256.91333333333347 383.42999999999995 L256.91333333333347 383.42999999999995 244.91333333333347 383.42999999999995 M 256.91333333333347 389.42999999999995 m -1, 0 a 1,1 0 1,0 2,0 a 1,1 0 1,0 -2,0 M 256.91333333333347 389.42999999999995 m -0.5, 0 a 0.5,0.5 0 1,0 1,0 a 0.5,0.5 0 1,0 -1,0  M256.91333333333347 389.42999999999995 L256.91333333333347 389.42999999999995 249.91333333333347 383.42999999999995 256.91333333333347 377.42999999999995 M 256.91333333333347 377.42999999999995 m -1, 0 a 1,1 0 1,0 2,0 a 1,1 0 1,0 -2,0 M 256.91333333333347 377.42999999999995 m -0.5, 0 a 0.5,0.5 0 1,0 1,0 a 0.5,0.5 0 1,0 -1,0  M244.91333333333347 383.42999999999995 Q 227.01 383.42999999999995, 209.1 380.45 T 173.29 377.4766666666666 M 161.29 377.4766666666666 m -1, 0 a 1,1 0 1,0 2,0 a 1,1 0 1,0 -2,0 M 161.29 377.4766666666666 m -0.5, 0 a 0.5,0.5 0 1,0 1,0 a 0.5,0.5 0 1,0 -1,0  M161.29 377.4766666666666 L161.29 377.4766666666666 173.29 377.4766666666666 M167.29 383.4766666666666 L167.29 383.4766666666666 167.29 371.4766666666666" id="h3009060734" class="r"></path><path d="M 25.56 -43.78 m -1, 0 a 1,1 0 1,0 2,0 a 1,1 0 1,0 -2,0 M 25.56 -43.78 m -0.5, 0 a 0.5,0.5 0 1,0 1,0 a 0.5,0.5 0 1,0 -1,0  M25.56 -43.78 L25.56 -43.78 13.559999999999999 -43.78 M 25.56 -37.78 m -1, 0 a 1,1 0 1,0 2,0 a 1,1 0 1,0 -2,0 M 25.56 -37.78 m -0.5, 0 a 0.5,0.5 0 1,0 1,0 a 0.5,0.5 0 1,0 -1,0  M25.56 -37.78 L25.56 -37.78 18.56 -43.78 25.56 -49.78 M 25.56 -49.78 m -1, 0 a 1,1 0 1,0 2,0 a 1,1 0 1,0 -2,0 M 25.56 -49.78 m -0.5, 0 a 0.5,0.5 0 1,0 1,0 a 0.5,0.5 0 1,0 -1,0  M13.559999999999999 -43.78 Q -13.86 -43.78, -41.29 19.3 T -96.14 82.37 M -108.14 82.37 m -1, 0 a 1,1 0 1,0 2,0 a 1,1 0 1,0 -2,0 M -108.14 82.37 m -0.5, 0 a 0.5,0.5 0 1,0 1,0 a 0.5,0.5 0 1,0 -1,0  M-108.14 82.37 L-108.14 82.37 -96.14 82.37 M-102.14 88.37 L-102.14 88.37 -102.14 76.37" id="h1446526203" class="r"></path><path d="M 26.05 123.19 m -1, 0 a 1,1 0 1,0 2,0 a 1,1 0 1,0 -2,0 M 26.05 123.19 m -0.5, 0 a 0.5,0.5 0 1,0 1,0 a 0.5,0.5 0 1,0 -1,0  M26.05 123.19 L26.05 123.19 14.05 123.19 M 26.05 129.19 m -1, 0 a 1,1 0 1,0 2,0 a 1,1 0 1,0 -2,0 M 26.05 129.19 m -0.5, 0 a 0.5,0.5 0 1,0 1,0 a 0.5,0.5 0 1,0 -1,0  M26.05 129.19 L26.05 129.19 19.05 123.19 26.05 117.19 M 26.05 117.19 m -1, 0 a 1,1 0 1,0 2,0 a 1,1 0 1,0 -2,0 M 26.05 117.19 m -0.5, 0 a 0.5,0.5 0 1,0 1,0 a 0.5,0.5 0 1,0 -1,0  M14.05 123.19 Q -13.49 123.19, -41.04 115.28 T -96.14 107.37 M -108.14 107.37 m -1, 0 a 1,1 0 1,0 2,0 a 1,1 0 1,0 -2,0 M -108.14 107.37 m -0.5, 0 a 0.5,0.5 0 1,0 1,0 a 0.5,0.5 0 1,0 -1,0  M-108.14 107.37 L-108.14 107.37 -96.14 107.37 M-102.14 113.37 L-102.14 113.37 -102.14 101.37" id="h2699117569" class="r"></path><path d="M 5.236666666666642 352.4766666666666 m -1, 0 a 1,1 0 1,0 2,0 a 1,1 0 1,0 -2,0 M 5.236666666666642 352.4766666666666 m -0.5, 0 a 0.5,0.5 0 1,0 1,0 a 0.5,0.5 0 1,0 -1,0  M5.236666666666642 352.4766666666666 L5.236666666666642 352.4766666666666 -6.763333333333358 352.4766666666666 M 5.236666666666642 358.4766666666666 m -1, 0 a 1,1 0 1,0 2,0 a 1,1 0 1,0 -2,0 M 5.236666666666642 358.4766666666666 m -0.5, 0 a 0.5,0.5 0 1,0 1,0 a 0.5,0.5 0 1,0 -1,0  M5.236666666666642 358.4766666666666 L5.236666666666642 358.4766666666666 -1.7633333333333576 352.4766666666666 5.236666666666642 346.4766666666666 M 5.236666666666642 346.4766666666666 m -1, 0 a 1,1 0 1,0 2,0 a 1,1 0 1,0 -2,0 M 5.236666666666642 346.4766666666666 m -0.5, 0 a 0.5,0.5 0 1,0 1,0 a 0.5,0.5 0 1,0 -1,0  M-6.763333333333358 352.4766666666666 Q -25.03 352.4766666666666, -43.3 290.25 T -79.84 228.03 M -91.84 228.03 m -1, 0 a 1,1 0 1,0 2,0 a 1,1 0 1,0 -2,0 M -91.84 228.03 m -0.5, 0 a 0.5,0.5 0 1,0 1,0 a 0.5,0.5 0 1,0 -1,0  M-91.84 228.03 L-91.84 228.03 -79.84 228.03 M-85.84 234.03 L-85.84 234.03 -85.84 222.03" id="h3690099745" class="r"></path><path d="M -280.19 57.37 m -1, 0 a 1,1 0 1,0 2,0 a 1,1 0 1,0 -2,0 M -280.19 57.37 m -0.5, 0 a 0.5,0.5 0 1,0 1,0 a 0.5,0.5 0 1,0 -1,0  M-280.19 57.37 L-280.19 57.37 -292.19 57.37 M -280.19 63.37 m -1, 0 a 1,1 0 1,0 2,0 a 1,1 0 1,0 -2,0 M -280.19 63.37 m -0.5, 0 a 0.5,0.5 0 1,0 1,0 a 0.5,0.5 0 1,0 -1,0  M-280.19 63.37 L-280.19 63.37 -287.19 57.37 -280.19 51.37 M -280.19 51.37 m -1, 0 a 1,1 0 1,0 2,0 a 1,1 0 1,0 -2,0 M -280.19 51.37 m -0.5, 0 a 0.5,0.5 0 1,0 1,0 a 0.5,0.5 0 1,0 -1,0  M-292.19 57.37 Q -316.09 57.37, -339.98 68.37 T -387.77 79.37 M -399.77 79.37 m -1, 0 a 1,1 0 1,0 2,0 a 1,1 0 1,0 -2,0 M -399.77 79.37 m -0.5, 0 a 0.5,0.5 0 1,0 1,0 a 0.5,0.5 0 1,0 -1,0  M-399.77 79.37 L-399.77 79.37 -387.77 79.37 M-393.77 85.37 L-393.77 85.37 -393.77 73.37" id="h911050877" class="r"></path></g><g class="hrs"></g><g class="ts"><svg width="158.05" height="250" x="-557.82" y="-27.63" id="h63013430" class="t"><rect height="40" width="158.05" class="th"></rect><text x="13" y="25" class="tht">orders</text><rect height="210" width="158.05" class="t-bg"></rect><text x="13" y="61" class="tf pk">row_id<tspan x="145.05" class="ty">int</tspan></text><path d="M7,14A2,2 0 0,1 5,12A2,2 0 0,1 7,10A2,2 0 0,1 9,12A2,2 0 0,1 7,14M12.65,10C11.83,7.67 9.61,6 7, 6A6, 6 0 0, 0 1, 12A6, 6 0 0, 0 7, 18C9.61, 18 11.83, 16.33 12.65, 14H17V18H21V14H23V10H12.65Z" class="i pk" transform="translate(112.37617187500001, 48) scale(0.65)"></path><text x="13" y="86" class="tf">order_id<tspan x="145.05" class="ty">varchar(10)</tspan></text><text x="13" y="111" class="tf fk">created_at<tspan x="145.05" class="ty">timestamp</tspan></text><text x="13" y="136" class="tf fk">item_id<tspan x="145.05" class="ty">varchar(10)</tspan></text><text x="13" y="161" class="tf">quantity<tspan x="145.05" class="ty">int</tspan></text><text x="13" y="186" class="tf fk">cust_id<tspan x="145.05" class="ty">varchar(10)</tspan></text><text x="13" y="211" class="tf">delivery<tspan x="145.05" class="ty">boolean</tspan></text><text x="13" y="236" class="tf fk">addr_id<tspan x="145.05" class="ty">varcher(10)</tspan></text></svg><svg width="185.38" height="125" x="-908.35" y="-23.34" id="h2841425641" class="t"><rect height="40" width="185.38" class="th"></rect><text x="13" y="25" class="tht">customers</text><rect height="85" width="185.38" class="t-bg"></rect><text x="13" y="61" class="tf pk">cust_id<tspan x="172.38" class="ty">int</tspan></text><path d="M7,14A2,2 0 0,1 5,12A2,2 0 0,1 7,10A2,2 0 0,1 9,12A2,2 0 0,1 7,14M12.65,10C11.83,7.67 9.61,6 7, 6A6, 6 0 0, 0 1, 12A6, 6 0 0, 0 7, 18C9.61, 18 11.83, 16.33 12.65, 14H17V18H21V14H23V10H12.65Z" class="i pk" transform="translate(139.706171875, 48) scale(0.65)"></path><text x="13" y="86" class="tf">cust_firstname<tspan x="172.38" class="ty">varchar(50)</tspan></text><text x="13" y="111" class="tf">cust_lastname<tspan x="172.38" class="ty">varchar(50)</tspan></text></svg><svg width="224.76" height="175" x="-923.05" y="144.87" id="h3861953418" class="t"><rect height="40" width="224.76" class="th"></rect><text x="13" y="25" class="tht">address</text><rect height="135" width="224.76" class="t-bg"></rect><text x="13" y="61" class="tf pk">addr_id<tspan x="211.76" class="ty">int</tspan></text><path d="M7,14A2,2 0 0,1 5,12A2,2 0 0,1 7,10A2,2 0 0,1 9,12A2,2 0 0,1 7,14M12.65,10C11.83,7.67 9.61,6 7, 6A6, 6 0 0, 0 1, 12A6, 6 0 0, 0 7, 18C9.61, 18 11.83, 16.33 12.65, 14H17V18H21V14H23V10H12.65Z" class="i pk" transform="translate(179.086171875, 48) scale(0.65)"></path><text x="13" y="86" class="tf">delivery_address1<tspan x="211.76" class="ty">varchar(200)</tspan></text><text x="13" y="111" class="tf">delivery_address2<tspan x="211.76" class="ty">varchar(200)?</tspan></text><text x="13" y="136" class="tf">delivery_city<tspan x="211.76" class="ty">varchar(50)</tspan></text><text x="13" y="161" class="tf">delvery_zipcode<tspan x="211.76" class="ty">varchar(20)</tspan></text></svg><svg width="178.07" height="150" x="25.56" y="-100.78" id="h3902158989" class="t"><rect height="40" width="178.07" class="th"></rect><text x="13" y="25" class="tht">shift</text><rect height="110" width="178.07" class="t-bg"></rect><text x="13" y="61" class="tf pk">shift_id<tspan x="165.07" class="ty">varchar(20)</tspan></text><path d="M7,14A2,2 0 0,1 5,12A2,2 0 0,1 7,10A2,2 0 0,1 9,12A2,2 0 0,1 7,14M12.65,10C11.83,7.67 9.61,6 7, 6A6, 6 0 0, 0 1, 12A6, 6 0 0, 0 7, 18C9.61, 18 11.83, 16.33 12.65, 14H17V18H21V14H23V10H12.65Z" class="i pk" transform="translate(83.716484375, 48) scale(0.65)"></path><text x="13" y="86" class="tf">day_of_week<tspan x="165.07" class="ty">varchar(10)</tspan></text><text x="13" y="111" class="tf">start_time<tspan x="165.07" class="ty">time</tspan></text><text x="13" y="136" class="tf">end_time<tspan x="165.07" class="ty">time</tspan></text></svg><svg width="172.06" height="175" x="26.05" y="66.19" id="h3541999088" class="t"><rect height="40" width="172.06" class="th"></rect><text x="13" y="25" class="tht">staff</text><rect height="135" width="172.06" class="t-bg"></rect><text x="13" y="61" class="tf pk">staff_id<tspan x="159.06" class="ty">int</tspan></text><path d="M7,14A2,2 0 0,1 5,12A2,2 0 0,1 7,10A2,2 0 0,1 9,12A2,2 0 0,1 7,14M12.65,10C11.83,7.67 9.61,6 7, 6A6, 6 0 0, 0 1, 12A6, 6 0 0, 0 7, 18C9.61, 18 11.83, 16.33 12.65, 14H17V18H21V14H23V10H12.65Z" class="i pk" transform="translate(126.386171875, 48) scale(0.65)"></path><text x="13" y="86" class="tf">first_name<tspan x="159.06" class="ty">varchar(50)</tspan></text><text x="13" y="111" class="tf">last_name<tspan x="159.06" class="ty">varchar(50)</tspan></text><text x="13" y="136" class="tf">post<tspan x="159.06" class="ty">varchar(100)</tspan></text><text x="13" y="161" class="tf">hourly_rate<tspan x="159.06" class="ty">decimal(5,2)</tspan></text></svg><svg width="172.05" height="175" x="-280.19" y="-49.63" id="h2836412505" class="t"><rect height="40" width="172.05" class="th"></rect><text x="13" y="25" class="tht">rota</text><rect height="135" width="172.05" class="t-bg"></rect><text x="13" y="61" class="tf pk">row_id<tspan x="159.05" class="ty">int</tspan></text><path d="M7,14A2,2 0 0,1 5,12A2,2 0 0,1 7,10A2,2 0 0,1 9,12A2,2 0 0,1 7,14M12.65,10C11.83,7.67 9.61,6 7, 6A6, 6 0 0, 0 1, 12A6, 6 0 0, 0 7, 18C9.61, 18 11.83, 16.33 12.65, 14H17V18H21V14H23V10H12.65Z" class="i pk" transform="translate(126.37617187500001, 48) scale(0.65)"></path><text x="13" y="86" class="tf">rota_id<tspan x="159.05" class="ty">varchar(20)</tspan></text><text x="13" y="111" class="tf pk">rota_date<tspan x="159.05" class="ty">timestamp</tspan></text><path d="M7,14A2,2 0 0,1 5,12A2,2 0 0,1 7,10A2,2 0 0,1 9,12A2,2 0 0,1 7,14M12.65,10C11.83,7.67 9.61,6 7, 6A6, 6 0 0, 0 1, 12A6, 6 0 0, 0 7, 18C9.61, 18 11.83, 16.33 12.65, 14H17V18H21V14H23V10H12.65Z" class="i pk" transform="translate(83.70234375000001, 98) scale(0.65)"></path><text x="13" y="136" class="tf fk">shift_id<tspan x="159.05" class="ty">varchar(20)</tspan></text><text x="13" y="161" class="tf fk">staff_id<tspan x="159.05" class="ty">varcher(20)</tspan></text></svg><svg width="160.72" height="125" x="-342.24" y="388.86" id="h1537057077" class="t"><rect height="40" width="160.72" class="th"></rect><text x="13" y="25" class="tht">ingredient</text><rect height="85" width="160.72" class="t-bg"></rect><text x="13" y="61" class="tf pk">ing_id<tspan x="147.72" class="ty">varchar(10)</tspan></text><path d="M7,14A2,2 0 0,1 5,12A2,2 0 0,1 7,10A2,2 0 0,1 9,12A2,2 0 0,1 7,14M12.65,10C11.83,7.67 9.61,6 7, 6A6, 6 0 0, 0 1, 12A6, 6 0 0, 0 7, 18C9.61, 18 11.83, 16.33 12.65, 14H17V18H21V14H23V10H12.65Z" class="i pk" transform="translate(66.366484375, 48) scale(0.65)"></path><text x="13" y="86" class="tf">ing_meas</text><text x="13" y="111" class="tf">ing_price<tspan x="147.72" class="ty">decimal(5,2)</tspan></text></svg><svg width="189.4" height="200" x="-281.2366666666668" y="146.03" id="h1168452966" class="t"><rect height="40" width="189.4" class="th"></rect><text x="13" y="25" class="tht">item</text><rect height="160" width="189.4" class="t-bg"></rect><text x="13" y="61" class="tf pk">item_id<tspan x="176.4" class="ty">varchar(10)</tspan></text><path d="M7,14A2,2 0 0,1 5,12A2,2 0 0,1 7,10A2,2 0 0,1 9,12A2,2 0 0,1 7,14M12.65,10C11.83,7.67 9.61,6 7, 6A6, 6 0 0, 0 1, 12A6, 6 0 0, 0 7, 18C9.61, 18 11.83, 16.33 12.65, 14H17V18H21V14H23V10H12.65Z" class="i pk" transform="translate(95.046484375, 48) scale(0.65)"></path><text x="13" y="86" class="tf fk">sku<tspan x="176.4" class="ty">varchar(20)</tspan></text><text x="13" y="111" class="tf">item_name<tspan x="176.4" class="ty">varchar(10)</tspan></text><text x="13" y="136" class="tf">item_catagory<tspan x="176.4" class="ty">varchar(100)</tspan></text><text x="13" y="161" class="tf">item_size<tspan x="176.4" class="ty">varchar(10)</tspan></text><text x="13" y="186" class="tf">item_price<tspan x="176.4" class="ty">decimal(10,2)</tspan></text></svg><svg width="156.05" height="150" x="5.236666666666642" y="270.4766666666666" id="h236439381" class="t"><rect height="40" width="156.05" class="th"></rect><text x="13" y="25" class="tht">recipe</text><rect height="110" width="156.05" class="t-bg"></rect><text x="13" y="61" class="tf pk">row_id<tspan x="143.05" class="ty">int</tspan></text><path d="M7,14A2,2 0 0,1 5,12A2,2 0 0,1 7,10A2,2 0 0,1 9,12A2,2 0 0,1 7,14M12.65,10C11.83,7.67 9.61,6 7, 6A6, 6 0 0, 0 1, 12A6, 6 0 0, 0 7, 18C9.61, 18 11.83, 16.33 12.65, 14H17V18H21V14H23V10H12.65Z" class="i pk" transform="translate(110.37617187500001, 48) scale(0.65)"></path><text x="13" y="86" class="tf fk">recipe_id<tspan x="143.05" class="ty">varchar(20)</tspan></text><text x="13" y="111" class="tf fk">ing_id<tspan x="143.05" class="ty">varchar(10)</tspan></text><text x="13" y="136" class="tf">quantity<tspan x="143.05" class="ty">int</tspan></text></svg><svg width="139.38" height="125" x="256.91333333333347" y="301.42999999999995" id="h2363698624" class="t"><rect height="40" width="139.38" class="th"></rect><text x="13" y="25" class="tht">inventory</text><rect height="85" width="139.38" class="t-bg"></rect><text x="13" y="61" class="tf pk">inv_id<tspan x="126.38" class="ty">int</tspan></text><path d="M7,14A2,2 0 0,1 5,12A2,2 0 0,1 7,10A2,2 0 0,1 9,12A2,2 0 0,1 7,14M12.65,10C11.83,7.67 9.61,6 7, 6A6, 6 0 0, 0 1, 12A6, 6 0 0, 0 7, 18C9.61, 18 11.83, 16.33 12.65, 14H17V18H21V14H23V10H12.65Z" class="i pk" transform="translate(93.706171875, 48) scale(0.65)"></path><text x="13" y="86" class="tf fk">ing_id<tspan x="126.38" class="ty">varchar(10)</tspan></text><text x="13" y="111" class="tf">quantity<tspan x="126.38" class="ty">int</tspan></text></svg></g></g><text class="qdbd-link" x="10" y="20">www.quickdatabasediagrams.com</text></svg>